<?xml version="1.0" standalone="no"?>
<!DOCTYPE svg PUBLIC "-//W3C//DTD SVG 20010904//EN"
 "http://www.w3.org/TR/2001/REC-SVG-20010904/DTD/svg10.dtd">
<svg version="1.0" xmlns="http://www.w3.org/2000/svg"
 width="494.000000pt" height="124.000000pt" viewBox="0 0 494.000000 124.000000"
 preserveAspectRatio="xMidYMid meet">

<g transform="translate(0.000000,124.000000) scale(0.100000,-0.100000)"
fill="#000000" stroke="none">
<path d="M1605 1229 c-254 -19 -400 -73 -571 -211 -41 -33 -290 -273 -552
-534 l-477 -473 345 0 345 -1 290 281 c407 394 437 418 592 461 77 22 88 22
1049 28 l971 5 234 227 234 228 -1180 -1 c-649 -1 -1225 -5 -1280 -10z"/>
<path d="M3550 625 l-615 -615 380 1 380 0 620 614 620 615 -385 0 -385 0
-615 -615z"/>
<path d="M1659 689 c-78 -11 -159 -41 -216 -80 -26 -18 -176 -160 -333 -316
l-285 -283 319 0 319 0 108 105 c60 57 127 114 149 125 67 34 176 40 790 40
l585 0 210 210 210 210 -900 -1 c-495 -1 -925 -5 -956 -10z"/>
<path d="M4020 150 c0 -5 11 -10 25 -10 24 0 25 -2 25 -65 0 -37 4 -65 10 -65
6 0 10 28 10 65 0 63 1 65 25 65 14 0 25 5 25 10 0 6 -27 10 -60 10 -33 0 -60
-4 -60 -10z"/>
<path d="M4160 85 c0 -88 18 -102 22 -18 l3 58 21 -54 c11 -30 26 -57 31 -58
6 -2 19 20 30 49 l18 53 3 -52 c2 -38 7 -53 18 -53 11 0 14 16 14 75 0 67 -2
75 -19 75 -14 0 -24 -13 -36 -50 -9 -27 -20 -52 -25 -55 -5 -3 -17 19 -26 50
-13 40 -23 55 -36 55 -16 0 -18 -9 -18 -75z"/>
</g>
</svg>
